<mxfile host="app.diagrams.net" agent="Mozilla/5.0 (Windows NT 10.0; Win64; x64) AppleWebKit/537.36 (KHTML, like Gecko) Chrome/139.0.0.0 Safari/537.36" version="28.1.1">
  <diagram name="Pagina-1" id="lcRcSlPs4WyXKo_QUpW_">
    <mxGraphModel dx="1188" dy="1888" grid="1" gridSize="10" guides="1" tooltips="1" connect="1" arrows="1" fold="1" page="1" pageScale="1" pageWidth="827" pageHeight="1169" math="0" shadow="0">
      <root>
        <mxCell id="0" />
        <mxCell id="1" parent="0" />
        <mxCell id="pAnx4MjT94lh43VU37Ng-4" value="" style="edgeStyle=orthogonalEdgeStyle;rounded=0;orthogonalLoop=1;jettySize=auto;html=1;entryX=0.5;entryY=0;entryDx=0;entryDy=0;" edge="1" parent="1" source="Z96m-Z_JJ0u367wfLJqp-1" target="pAnx4MjT94lh43VU37Ng-6">
          <mxGeometry relative="1" as="geometry">
            <mxPoint x="414" y="170" as="targetPoint" />
          </mxGeometry>
        </mxCell>
        <mxCell id="Z96m-Z_JJ0u367wfLJqp-1" value="&lt;div&gt;COMPONENT RECEIVED&lt;/div&gt;&lt;div&gt;&lt;br&gt;&lt;div&gt;Remote analysis or replacement reason unclear for that component Serial Number&lt;/div&gt;&lt;/div&gt;" style="shape=process;whiteSpace=wrap;html=1;backgroundOutline=1;" parent="1" vertex="1">
          <mxGeometry x="288.5" y="40" width="253" height="80" as="geometry" />
        </mxCell>
        <mxCell id="pAnx4MjT94lh43VU37Ng-9" style="edgeStyle=orthogonalEdgeStyle;rounded=0;orthogonalLoop=1;jettySize=auto;html=1;entryX=0.5;entryY=0;entryDx=0;entryDy=0;" edge="1" parent="1" source="pAnx4MjT94lh43VU37Ng-6" target="pAnx4MjT94lh43VU37Ng-8">
          <mxGeometry relative="1" as="geometry" />
        </mxCell>
        <UserObject label="Collect component data and fill in &quot;New case&lt;span style=&quot;background-color: transparent; color: light-dark(rgb(0, 0, 0), rgb(255, 255, 255));&quot;&gt;&quot;:&lt;/span&gt;&lt;div&gt;&lt;div&gt;&lt;br&gt;&lt;div&gt;- Component SN&lt;br&gt;&lt;div&gt;&lt;div&gt;&lt;div&gt;- Charger SN&lt;/div&gt;&lt;div&gt;- Charger SW&lt;/div&gt;&lt;/div&gt;&lt;div&gt;- Lifecycle and Service tkt&lt;/div&gt;&lt;/div&gt;&lt;/div&gt;&lt;/div&gt;&lt;/div&gt;" tooltip="https://alpitronic-jira.atlassian.net/wiki/spaces/Charger/database/1282932806?savedViewId=39fbd8b2-1df1-4153-b972-60fe3a6efad8" link="https://alpitronic-jira.atlassian.net/wiki/spaces/Charger/database/1282932806?savedViewId=39fbd8b2-1df1-4153-b972-60fe3a6efad8" id="pAnx4MjT94lh43VU37Ng-6">
          <mxCell style="rounded=1;whiteSpace=wrap;html=1;fillStyle=solid;fillColor=default;gradientColor=none;" vertex="1" parent="1">
            <mxGeometry x="272" y="150" width="284" height="100" as="geometry" />
          </mxCell>
        </UserObject>
        <UserObject label="Collect issue data and fill:&lt;div&gt;&lt;div&gt;&lt;br&gt;&lt;/div&gt;&lt;div&gt;&quot;Issue reproduced in lab&quot; column&lt;/div&gt;&lt;/div&gt;" tooltip="https://alpitronic-jira.atlassian.net/wiki/spaces/Charger/database/1282932806?savedViewId=39fbd8b2-1df1-4153-b972-60fe3a6efad8" id="pAnx4MjT94lh43VU37Ng-8">
          <mxCell style="rounded=1;whiteSpace=wrap;html=1;" vertex="1" parent="1">
            <mxGeometry x="308" y="300" width="214" height="100" as="geometry" />
          </mxCell>
        </UserObject>
        <mxCell id="pAnx4MjT94lh43VU37Ng-15" value="&lt;h1 style=&quot;margin-top: 0px;&quot;&gt;Heading&lt;/h1&gt;&lt;p&gt;Lorem ipsum dolor sit amet, consectetur adipisicing elit, sed do eiusmod tempor incididunt ut labore et dolore magna aliqua.&lt;/p&gt;" style="text;html=1;whiteSpace=wrap;overflow=hidden;rounded=0;" vertex="1" parent="1">
          <mxGeometry x="10" y="-20" width="180" height="120" as="geometry" />
        </mxCell>
        <mxCell id="pAnx4MjT94lh43VU37Ng-16" value="Branch" style="whiteSpace=wrap;html=1;shape=partialRectangle;top=0;left=0;bottom=1;right=0;points=[[0,1],[1,1]];fillColor=none;align=center;verticalAlign=bottom;routingCenterY=0.5;snapToPoint=1;recursiveResize=0;autosize=1;treeFolding=1;treeMoving=1;newEdgeStyle={&quot;edgeStyle&quot;:&quot;entityRelationEdgeStyle&quot;,&quot;startArrow&quot;:&quot;none&quot;,&quot;endArrow&quot;:&quot;none&quot;,&quot;segment&quot;:10,&quot;curved&quot;:1,&quot;sourcePerimeterSpacing&quot;:0,&quot;targetPerimeterSpacing&quot;:0};" vertex="1" parent="1">
          <mxGeometry x="596" y="130" width="80" height="30" as="geometry" />
        </mxCell>
        <mxCell id="pAnx4MjT94lh43VU37Ng-17" value="" style="edgeStyle=entityRelationEdgeStyle;startArrow=none;endArrow=none;segment=10;curved=1;sourcePerimeterSpacing=0;targetPerimeterSpacing=0;rounded=0;" edge="1" target="pAnx4MjT94lh43VU37Ng-16" parent="1">
          <mxGeometry relative="1" as="geometry">
            <mxPoint x="556" y="200" as="sourcePoint" />
          </mxGeometry>
        </mxCell>
        <mxCell id="pAnx4MjT94lh43VU37Ng-18" value="Sub Topic" style="whiteSpace=wrap;html=1;rounded=1;arcSize=50;align=center;verticalAlign=middle;strokeWidth=1;autosize=1;spacing=4;treeFolding=1;treeMoving=1;newEdgeStyle={&quot;edgeStyle&quot;:&quot;entityRelationEdgeStyle&quot;,&quot;startArrow&quot;:&quot;none&quot;,&quot;endArrow&quot;:&quot;none&quot;,&quot;segment&quot;:10,&quot;curved&quot;:1,&quot;sourcePerimeterSpacing&quot;:0,&quot;targetPerimeterSpacing&quot;:0};" vertex="1" parent="1">
          <mxGeometry x="680" y="240" width="100" height="70" as="geometry" />
        </mxCell>
        <mxCell id="pAnx4MjT94lh43VU37Ng-19" value="" style="edgeStyle=entityRelationEdgeStyle;startArrow=none;endArrow=none;segment=10;curved=1;sourcePerimeterSpacing=0;targetPerimeterSpacing=0;rounded=0;" edge="1" target="pAnx4MjT94lh43VU37Ng-18" parent="1">
          <mxGeometry relative="1" as="geometry">
            <mxPoint x="650" y="282" as="sourcePoint" />
          </mxGeometry>
        </mxCell>
        <mxCell id="pAnx4MjT94lh43VU37Ng-32" value="" style="edgeStyle=elbowEdgeStyle;rounded=0;orthogonalLoop=1;jettySize=auto;html=1;elbow=vertical;startArrow=none;endArrow=none;" edge="1" parent="1" source="pAnx4MjT94lh43VU37Ng-29" target="pAnx4MjT94lh43VU37Ng-18">
          <mxGeometry relative="1" as="geometry" />
        </mxCell>
        <mxCell id="pAnx4MjT94lh43VU37Ng-29" value="Ciao ciao fsòzfoinjgaklmrsngvlò&lt;div&gt;&lt;span style=&quot;background-color: transparent; color: light-dark(rgb(0, 0, 0), rgb(255, 255, 255));&quot;&gt;&amp;lt;knsdòlvnzsòldgbn&lt;/span&gt;&lt;/div&gt;&lt;div&gt;&lt;span style=&quot;background-color: transparent; color: light-dark(rgb(0, 0, 0), rgb(255, 255, 255));&quot;&gt;&amp;lt;azd&lt;/span&gt;&lt;/div&gt;" style="whiteSpace=wrap;html=1;align=center;verticalAlign=middle;treeFolding=1;treeMoving=1;newEdgeStyle={&quot;edgeStyle&quot;:&quot;elbowEdgeStyle&quot;,&quot;startArrow&quot;:&quot;none&quot;,&quot;endArrow&quot;:&quot;none&quot;};" vertex="1" parent="1">
          <mxGeometry x="760" y="100" width="100" height="60" as="geometry" />
        </mxCell>
        <mxCell id="pAnx4MjT94lh43VU37Ng-30" value="" style="edgeStyle=elbowEdgeStyle;elbow=vertical;sourcePerimeterSpacing=0;targetPerimeterSpacing=0;startArrow=none;endArrow=none;rounded=0;curved=0;" edge="1" target="pAnx4MjT94lh43VU37Ng-29" parent="1">
          <mxGeometry relative="1" as="geometry">
            <mxPoint x="740" y="60" as="sourcePoint" />
          </mxGeometry>
        </mxCell>
      </root>
    </mxGraphModel>
  </diagram>
</mxfile>
